<?xml version="1.0" standalone="no"?>
<!DOCTYPE svg PUBLIC "-//W3C//DTD SVG 20010904//EN"
 "http://www.w3.org/TR/2001/REC-SVG-20010904/DTD/svg10.dtd">
<svg version="1.0" xmlns="http://www.w3.org/2000/svg"
 width="350.000000pt" height="350.000000pt" viewBox="0 0 350.000000 350.000000"
 preserveAspectRatio="xMidYMid meet">

<g transform="translate(0.000000,350.000000) scale(0.100000,-0.100000)"
fill="#000000" stroke="none">
<path d="M1000 1719 c0 -57 4 -88 10 -84 6 3 10 33 10 66 0 32 3 59 8 58 4 0
25 -28 48 -62 23 -34 45 -61 50 -60 13 4 17 154 4 167 -7 7 -10 -10 -10 -57 0
-37 -3 -67 -7 -67 -5 0 -27 30 -51 65 -23 36 -47 65 -52 65 -6 0 -10 -37 -10
-91z"/>
<path d="M1246 1789 c-22 -17 -26 -29 -26 -68 0 -33 5 -53 18 -63 60 -54 142
-14 142 68 0 33 -51 84 -83 84 -13 0 -36 -9 -51 -21z m92 -15 c31 -21 31 -87
0 -108 -48 -34 -108 -4 -108 54 0 58 60 88 108 54z"/>
<path d="M1570 1720 c0 -53 4 -90 10 -90 6 0 10 37 10 90 0 53 -4 90 -10 90
-6 0 -10 -37 -10 -90z"/>
<path d="M1670 1721 c0 -54 4 -91 10 -91 6 0 10 31 10 72 0 39 3 68 8 64 4 -4
16 -34 27 -67 11 -33 25 -61 30 -61 5 0 21 31 35 69 l25 68 3 -72 c4 -105 22
-91 22 17 0 115 -16 120 -55 15 -15 -42 -29 -75 -30 -73 -2 2 -14 35 -28 73
-15 44 -30 71 -40 73 -15 3 -17 -8 -17 -87z"/>
<path d="M1941 1725 c-19 -47 -31 -88 -28 -92 4 -4 13 8 19 25 11 29 17 32 53
32 36 0 42 -3 54 -32 7 -18 15 -28 17 -22 6 13 -59 167 -72 171 -5 2 -25 -35
-43 -82z m63 8 c6 -20 4 -23 -18 -23 -29 0 -31 6 -15 47 11 30 19 24 33 -24z"/>
<path d="M2154 1787 c-23 -20 -29 -33 -29 -67 0 -70 63 -109 130 -78 19 9 25
19 25 45 0 31 -2 33 -36 33 -21 0 -33 -4 -29 -10 3 -5 17 -10 31 -10 29 0 32
-25 5 -40 -52 -27 -111 5 -111 60 0 58 69 92 112 53 22 -20 33 -13 15 10 -6
10 -28 20 -48 23 -29 5 -41 1 -65 -19z"/>
<path d="M2370 1720 l0 -90 60 0 c33 0 60 4 60 10 0 6 -25 10 -56 10 l-55 0 3
33 c3 31 5 32 51 35 26 2 47 8 47 13 0 5 -6 9 -12 8 -7 -1 -30 -1 -50 0 -34 1
-38 4 -38 26 0 24 3 25 56 25 34 0 53 4 49 10 -3 6 -31 10 -61 10 l-54 0 0
-90z"/>
</g>
</svg>
